<svg xmlns="http://www.w3.org/2000/svg" data-name="Layer 1" viewBox="0 0 128 160" x="0px" y="0px"><title>Interior Design final 2</title><path d="M9.37,52.38c-2,4.25-2,7.66-.15,10.13,3,3.94,9.68,3.67,12.39,3.39,5.9,6.2,11.56,6.21,14.68,5.52A7.76,7.76,0,0,0,38,73.79C36.89,79.92,40.43,84,44.2,86.21l0,.08c-.87,1.82.07,4.1,1.3,6a2.81,2.81,0,0,0-1.68,1.45c-1,2.08.55,3.92,5.13,9.39l.13.16a2,2,0,0,0,2.8.24,2,2,0,0,0,.24-2.83l-.13-.16c-1.47-1.75-2.88-3.44-3.72-4.58h1a2,2,0,0,0,1.87-1.19,2,2,0,0,0-.36-2.2,14.44,14.44,0,0,1-2.93-4.39,5.44,5.44,0,0,1,1.2,0,2,2,0,0,0,2.12-1.66,2,2,0,0,0-1.46-2.28c-.34-.09-7.47-2.06-7.9-7.79A33,33,0,0,0,49,79.05a2,2,0,0,0,.44,0,2,2,0,0,0,.44-4c-4.35-1-10.26-3.7-10-6.15a2,2,0,0,0-.88-1.86,2,2,0,0,0-2-.1c-.06,0-6.17,3.19-13-4.59a2,2,0,0,0-1.8-.65c-1.94.31-7.89.67-9.67-1.71-1.11-1.49-.3-4.09.59-6a46.86,46.86,0,0,1,15.67-19,2,2,0,0,0,.32-.25h3.1a10.61,10.61,0,0,1,.22,7.32c-1,2.87-3.22,5.42-6.7,7.6a15.4,15.4,0,0,0-4.43,2.38,2,2,0,0,0-.48,2.62,2,2,0,0,0,2.51.8,37,37,0,0,0,4.05-2.11c2.86-.9,7-1,10.84,3.37a2,2,0,0,0,2.83.15c.08-.08,8.44-7.66,15-3.32a2,2,0,0,0,2,.11A2,2,0,0,0,59,52.06a4.47,4.47,0,0,1,4.46-4.29h.49a4.47,4.47,0,0,1,4.46,4.29,2,2,0,0,0,1.08,1.7,2,2,0,0,0,2-.11C78,49.3,86.38,56.89,86.47,57a2,2,0,0,0,1.35.53h.1a2,2,0,0,0,1.39-.67c3.83-4.35,7.91-4.3,10.76-3.41a37,37,0,0,0,4.13,2.15,2,2,0,0,0,2.51-.8,2,2,0,0,0-.48-2.62,15.39,15.39,0,0,0-4.43-2.38c-3.48-2.19-5.72-4.73-6.7-7.6a10.61,10.61,0,0,1,.22-7.32h3.1a2,2,0,0,0,.32.25,46.82,46.82,0,0,1,15.67,19c.88,1.93,1.7,4.53.59,6-1.78,2.38-7.73,2-9.67,1.71a2,2,0,0,0-1.8.65c-6.75,7.67-12.78,4.71-13,4.59a2,2,0,0,0-2,.1A2,2,0,0,0,87.57,69c.22,2.45-5.69,5.15-10,6.15a2,2,0,0,0,.44,4,2,2,0,0,0,.44,0,32,32,0,0,0,7.95-3c-.11,6.05-7.57,8.12-7.91,8.21A2,2,0,0,0,77,86.51a2,2,0,0,0,2.12,1.67,5.44,5.44,0,0,1,1.2,0,14.43,14.43,0,0,1-2.93,4.39,2,2,0,0,0-.36,2.2A2,2,0,0,0,78.87,96h1c-.84,1.14-2.25,2.83-3.72,4.58l-.13.16a2,2,0,0,0,.24,2.83,2,2,0,0,0,2.8-.24l.13-.16c4.58-5.47,6.12-7.31,5.13-9.39a2.81,2.81,0,0,0-1.68-1.45c1.23-1.9,2.17-4.18,1.3-6l0-.08c3.9-2.34,7.56-6.59,6.07-13.1a7.15,7.15,0,0,0,1.07-1.69c3.11.69,8.78.68,14.68-5.52,2.72.29,9.44.55,12.39-3.39C120,60,120,56.64,118,52.38a52.46,52.46,0,0,0-13-17.54h5.15v3.65a2,2,0,1,0,4,0V28.35a2,2,0,1,0-4,0v2.48H89.75V28.35a2,2,0,1,0-4,0V38.48a2,2,0,1,0,4,0V34.84h1.37a14.6,14.6,0,0,0,.18,8.54,16,16,0,0,0,3.45,5.75,13.82,13.82,0,0,0-7.08,3.65C84.79,50.6,78.23,46.56,71.74,49a8.43,8.43,0,0,0-7.81-5.27h-.49A8.43,8.43,0,0,0,55.64,49c-6.49-2.46-13,1.58-15.92,3.75a13.82,13.82,0,0,0-7.08-3.65,16,16,0,0,0,3.45-5.75,14.6,14.6,0,0,0,.18-8.54h2v3.65a2,2,0,1,0,4,0V28.35a2,2,0,1,0-4,0v2.48H17.89V28.35a2,2,0,1,0-4,0V38.48a2,2,0,1,0,4,0V34.84h4.53A52.47,52.47,0,0,0,9.37,52.38Z"/><path d="M56.14,38.48V28.35a2,2,0,1,0-4,0V38.48a2,2,0,1,0,4,0Z"/><path d="M49.18,40.82V26a2,2,0,1,0-4,0V40.82a2,2,0,1,0,4,0Z"/><path d="M2,40.49a2,2,0,0,0,2-2V28.35a2,2,0,1,0-4,0V38.48A2,2,0,0,0,2,40.49Z"/><path d="M8.94,24a2,2,0,0,0-2,2V40.82a2,2,0,1,0,4,0V26A2,2,0,0,0,8.94,24Z"/><path d="M126,26.34a2,2,0,0,0-2,2V38.48a2,2,0,1,0,4,0V28.35A2,2,0,0,0,126,26.34Z"/><path d="M119.06,24a2,2,0,0,0-2,2V40.82a2,2,0,1,0,4,0V26A2,2,0,0,0,119.06,24Z"/><path d="M75.84,38.48V28.35a2,2,0,1,0-4,0V38.48a2,2,0,1,0,4,0Z"/><path d="M82.8,40.82V26a2,2,0,1,0-4,0V40.82a2,2,0,1,0,4,0Z"/><text x="0" y="143" fill="#000000" font-size="5px" font-weight="bold" font-family="'Helvetica Neue', Helvetica, Arial-Unicode, Arial, Sans-serif">Created by WEBTECHOPS LLP</text><text x="0" y="148" fill="#cyan" font-size="5px" font-weight="bold" font-family="'Helvetica Neue', Helvetica, Arial-Unicode, Arial, Sans-serif">from the Noun Project</text></svg>